<svg xmlns="http://www.w3.org/2000/svg" xmlns:xlink="http://www.w3.org/1999/xlink" width="517.42" height="137.3" viewBox="0 0 517.42 137.3"><defs><style>.cls-1{fill:url(#New_Gradient_Swatch_copy_3);}.cls-2{fill:#fff;}</style><linearGradient id="New_Gradient_Swatch_copy_3" y1="68.65" x2="517.42" y2="68.65" gradientUnits="userSpaceOnUse"><stop offset="0" stop-color="#ff6b3f"/><stop offset="1" stop-color="#ff0053"/></linearGradient></defs><g id="Layer_2" data-name="Layer 2"><g id="Layer_1-2" data-name="Layer 1"><path class="cls-1" d="M448.77,137.3H68.65A68.66,68.66,0,0,1,0,68.65H0A68.65,68.65,0,0,1,68.65,0H448.77a68.65,68.65,0,0,1,68.65,68.65h0A68.66,68.66,0,0,1,448.77,137.3Z"/><path class="cls-2" d="M45,74l6.87-.67a8.42,8.42,0,0,0,2.52,5.08A7.63,7.63,0,0,0,59.55,80a7.88,7.88,0,0,0,5.14-1.44,4.28,4.28,0,0,0,1.73-3.38,3.21,3.21,0,0,0-.72-2.11,5.89,5.89,0,0,0-2.55-1.51c-.82-.29-2.71-.8-5.65-1.53q-5.69-1.41-8-3.46a9.11,9.11,0,0,1-3.23-7,9,9,0,0,1,1.52-5A9.51,9.51,0,0,1,52.19,51a17.5,17.5,0,0,1,6.88-1.21q6.59,0,9.92,2.88a10.2,10.2,0,0,1,3.49,7.71l-7.06.31a6,6,0,0,0-1.94-3.87A7.13,7.13,0,0,0,59,55.63a8.09,8.09,0,0,0-4.82,1.27,2.53,2.53,0,0,0-1.12,2.17,2.66,2.66,0,0,0,1,2.12q1.34,1.13,6.49,2.34a33.77,33.77,0,0,1,7.62,2.52,9.79,9.79,0,0,1,3.87,3.56,11,11,0,0,1-.27,11.2,10,10,0,0,1-4.73,3.9A19.64,19.64,0,0,1,59.48,86q-6.65,0-10.19-3.07T45,74Z"/><path class="cls-2" d="M87.31,85.37V56.3H76.92V50.38h27.81V56.3H94.37V85.37Z"/><path class="cls-2" d="M137.21,85.37h-7.69l-3.05-8h-14l-2.88,8h-7.5l13.63-35h7.47Zm-13-13.84-4.82-13-4.72,13Z"/><path class="cls-2" d="M141,85.37v-35h14.87a25.38,25.38,0,0,1,8.15.95,8,8,0,0,1,4.07,3.35,10.06,10.06,0,0,1,1.53,5.51,9.37,9.37,0,0,1-2.32,6.51,11.13,11.13,0,0,1-6.92,3.23,16.19,16.19,0,0,1,3.78,2.94,38.39,38.39,0,0,1,4,5.67l4.28,6.83H164l-5.11-7.61a51,51,0,0,0-3.72-5.15A5.48,5.48,0,0,0,153,71.16a11.66,11.66,0,0,0-3.55-.4H148V85.37ZM148,65.18h5.23a26.76,26.76,0,0,0,6.35-.43,3.85,3.85,0,0,0,2-1.48,4.52,4.52,0,0,0,.72-2.62,4.22,4.22,0,0,0-.95-2.86,4.3,4.3,0,0,0-2.66-1.37c-.57-.08-2.29-.12-5.15-.12H148Z"/><path class="cls-2" d="M184.13,85.37V56.3H173.75V50.38h27.8V56.3H191.19V85.37Z"/><path class="cls-2" d="M217.9,74l6.87-.67a8.42,8.42,0,0,0,2.52,5.08A7.63,7.63,0,0,0,232.41,80a7.86,7.86,0,0,0,5.14-1.44,4.28,4.28,0,0,0,1.73-3.38,3.21,3.21,0,0,0-.72-2.11A5.91,5.91,0,0,0,236,71.58q-1.25-.43-5.66-1.53c-3.79-.94-6.44-2.09-8-3.46a9.1,9.1,0,0,1-3.22-7,9,9,0,0,1,1.51-5A9.51,9.51,0,0,1,225.05,51a17.5,17.5,0,0,1,6.88-1.21q6.6,0,9.92,2.88a10.21,10.21,0,0,1,3.5,7.71l-7.07.31a6,6,0,0,0-1.94-3.87,7.13,7.13,0,0,0-4.48-1.19A8.09,8.09,0,0,0,227,56.9a2.53,2.53,0,0,0-1.12,2.17A2.66,2.66,0,0,0,227,61.19q1.34,1.13,6.49,2.34a34.07,34.07,0,0,1,7.63,2.52A9.83,9.83,0,0,1,245,69.61a11,11,0,0,1-.27,11.2,10,10,0,0,1-4.73,3.9A19.6,19.6,0,0,1,232.34,86q-6.63,0-10.19-3.07T217.9,74Z"/><path class="cls-2" d="M252.32,85.37v-35h7.06V64.15h13.84V50.38h7.07v35h-7.07V70.07H259.38v15.3Z"/><path class="cls-2" d="M286.16,68.09a22.18,22.18,0,0,1,1.6-9,16.55,16.55,0,0,1,3.25-4.8,13.7,13.7,0,0,1,4.53-3.15,19.25,19.25,0,0,1,7.54-1.38q7.73,0,12.37,4.79t4.65,13.34q0,8.47-4.61,13.26T303.17,86q-7.8,0-12.41-4.76T286.16,68.09Zm7.28-.24q0,6,2.74,9a9.43,9.43,0,0,0,13.9,0q2.71-3,2.71-9.13t-2.64-9a9.76,9.76,0,0,0-14,0Q293.44,61.82,293.44,67.85Z"/><path class="cls-2" d="M325.61,85.37v-35h11.33a41.1,41.1,0,0,1,8.41.53,9.12,9.12,0,0,1,5,3.42,10.89,10.89,0,0,1,2,6.82,11.39,11.39,0,0,1-1.17,5.41,9.51,9.51,0,0,1-3,3.45,10.14,10.14,0,0,1-3.66,1.66,39.86,39.86,0,0,1-7.33.5h-4.61v13.2Zm7.06-29.07v9.93h3.87a18.11,18.11,0,0,0,5.58-.55A4.59,4.59,0,0,0,344.33,64a4.71,4.71,0,0,0,.8-2.72A4.52,4.52,0,0,0,344,58.09a4.91,4.91,0,0,0-2.84-1.55,33.73,33.73,0,0,0-5.08-.24Z"/><path class="cls-2" d="M358.21,85.37v-35h11.34a41,41,0,0,1,8.4.53,9.12,9.12,0,0,1,5,3.42,10.89,10.89,0,0,1,2,6.82,11.39,11.39,0,0,1-1.17,5.41,9.51,9.51,0,0,1-3,3.45,10.14,10.14,0,0,1-3.66,1.66,39.86,39.86,0,0,1-7.33.5h-4.61v13.2Zm7.06-29.07v9.93h3.87a18.07,18.07,0,0,0,5.58-.55A4.59,4.59,0,0,0,376.93,64a4.71,4.71,0,0,0,.8-2.72,4.52,4.52,0,0,0-1.12-3.15,4.88,4.88,0,0,0-2.84-1.55,33.73,33.73,0,0,0-5.08-.24Z"/><path class="cls-2" d="M390.6,85.37v-35h7.06v35Z"/><path class="cls-2" d="M404.46,85.37v-35h6.87l14.32,23.37V50.38h6.57v35h-7.09L411,62.55V85.37Z"/><path class="cls-2" d="M456,72.51v-5.9h15.23V80.55a19.18,19.18,0,0,1-6.43,3.78A23.41,23.41,0,0,1,456.23,86a19.1,19.1,0,0,1-9.57-2.31,14.66,14.66,0,0,1-6.14-6.58,21.3,21.3,0,0,1-2-9.32A20.14,20.14,0,0,1,440.76,58a15.41,15.41,0,0,1,6.71-6.51,18.08,18.08,0,0,1,8.37-1.74q6.53,0,10.18,2.73a12.31,12.31,0,0,1,4.72,7.55l-7,1.32a7.38,7.38,0,0,0-2.78-4.07,8.38,8.38,0,0,0-5.1-1.5,9.57,9.57,0,0,0-7.36,2.94q-2.73,2.94-2.73,8.71,0,6.23,2.77,9.34a9.22,9.22,0,0,0,7.25,3.12,12.14,12.14,0,0,0,4.45-.87A15.31,15.31,0,0,0,464.05,77V72.51Z"/></g></g></svg>