<svg xmlns="http://www.w3.org/2000/svg" width="50" height="50" viewBox="0 0 50 50"><defs><style>.cls-1{fill:#231f20;}.cls-2{fill:#b3b3b3;}</style></defs><g id="Layer_2" data-name="Layer 2"><g id="Layer_1-2" data-name="Layer 1"><path class="cls-1" d="M34.65,35.72H28.22a.54.54,0,0,1-.43-.86l5.79-7.72H28.22a.54.54,0,1,1,0-1.07h6.43a.55.55,0,0,1,.48.3.54.54,0,0,1-.05.56l-5.79,7.72h5.36a.54.54,0,0,1,0,1.07Z"/><path class="cls-1" d="M28.22,23.93a.41.41,0,0,1-.19,0,.54.54,0,0,1-.32-.69l3.22-8.57a.53.53,0,0,1,1,0l3.22,8.57a.54.54,0,0,1-.31.69.52.52,0,0,1-.69-.31l-2.72-7.24-2.71,7.24A.55.55,0,0,1,28.22,23.93Z"/><rect class="cls-1" x="29.29" y="20.71" width="4.29" height="1.07"/><path class="cls-1" d="M23.93,17.5a.57.57,0,0,1-.38-.16l-3.91-3.91-3.91,3.91a.53.53,0,0,1-.75,0,.54.54,0,0,1,0-.76l4.66-4.66,4.67,4.66a.54.54,0,0,1,0,.76A.57.57,0,0,1,23.93,17.5Z"/><path class="cls-1" d="M19.64,38.08,15,33.42a.54.54,0,0,1,0-.76.53.53,0,0,1,.75,0l3.91,3.91,3.91-3.91a.54.54,0,0,1,.76.76Z"/><path class="cls-1" d="M19.64,23.93a.54.54,0,0,1-.53-.54V13.21a.54.54,0,1,1,1.07,0V23.39A.54.54,0,0,1,19.64,23.93Z"/><path class="cls-1" d="M19.64,37.33a.54.54,0,0,1-.53-.54V26.61a.54.54,0,1,1,1.07,0V36.79A.54.54,0,0,1,19.64,37.33Z"/><path class="cls-2" d="M41.67,50H8.33A8.34,8.34,0,0,1,0,41.67V8.33A8.34,8.34,0,0,1,8.33,0H41.67A8.34,8.34,0,0,1,50,8.33V41.67A8.34,8.34,0,0,1,41.67,50ZM8.33,3.33a5,5,0,0,0-5,5V41.67a5,5,0,0,0,5,5H41.67a5,5,0,0,0,5-5V8.33a5,5,0,0,0-5-5Z"/></g></g></svg>