<svg xmlns="http://www.w3.org/2000/svg" xmlns:xlink="http://www.w3.org/1999/xlink" width="228.85" height="303.22" viewBox="0 0 228.85 303.22"><defs><style>.cls-1{fill:url(#New_Gradient_Swatch_copy_3);}.cls-2{fill:url(#New_Gradient_Swatch_copy_3-2);}</style><linearGradient id="New_Gradient_Swatch_copy_3" x1="62.2" y1="44.3" x2="166.65" y2="44.3" gradientUnits="userSpaceOnUse"><stop offset="0" stop-color="#ff6b3f"/><stop offset="1" stop-color="#ff0053"/></linearGradient><linearGradient id="New_Gradient_Swatch_copy_3-2" x1="0" y1="185.87" x2="228.85" y2="185.87" xlink:href="#New_Gradient_Swatch_copy_3"/></defs><g id="Layer_2" data-name="Layer 2"><g id="Layer_1-2" data-name="Layer 1"><path class="cls-1" d="M166.65,52.24V78.12a9.64,9.64,0,0,1-.06,1.08,9.34,9.34,0,0,1-.41,2,9.63,9.63,0,0,1-.79,1.87,9,9,0,0,1-.53.86,12.17,12.17,0,0,1-1.28,1.57,10.47,10.47,0,0,1-17.86-7.42V52.24a31.31,31.31,0,0,0-62.61,0V78.12a10.46,10.46,0,1,1-20.91,0V52.24a52.23,52.23,0,1,1,104.45,0Z"/><path class="cls-2" d="M208.81,68.51H178.87v9.61a22.69,22.69,0,1,1-45.37,0V68.51H95.33v9.61a22.68,22.68,0,1,1-45.35,0V68.51H20L0,303.22H228.85ZM50,151.14v-3.5a6.11,6.11,0,1,1,12.22,0v3a10.79,10.79,0,0,0,9.41,10.88,10.46,10.46,0,0,0,11.5-10.42v-3.5a6.11,6.11,0,0,1,12.22,0v2.85c0,11.8-8.73,22.13-20.48,23.23A22.71,22.71,0,0,1,50,151.14Zm116.67,71.94a52.23,52.23,0,1,1-104.45,0v-5.52a9.91,9.91,0,0,1,.06-1.08,9.26,9.26,0,0,1,.41-2,9.46,9.46,0,0,1,.79-1.88,8.78,8.78,0,0,1,.53-.85,12.17,12.17,0,0,1,1.28-1.57,10.47,10.47,0,0,1,17.86,7.41v5.52a31.31,31.31,0,0,0,62.61,0v-5.52a10.46,10.46,0,1,1,20.91,0Zm12.22-72.61c0,11.8-8.74,22.14-20.49,23.25a22.71,22.71,0,0,1-24.88-22.58v-3.5a6.11,6.11,0,0,1,12.22,0v3c0,6,4.94,11.25,11,11a10.57,10.57,0,0,0,6.9-3,11.43,11.43,0,0,0,1.28-1.56,9,9,0,0,0,.53-.86,9.63,9.63,0,0,0,.79-1.87,9.34,9.34,0,0,0,.41-2,9.77,9.77,0,0,0,.06-1.08v-3.5a6.11,6.11,0,0,1,12.22,0Z"/></g></g></svg>