<svg xmlns="http://www.w3.org/2000/svg" width="45.28" height="60" viewBox="0 0 45.28 60"><defs><style>.cls-1{fill:#fff;}</style></defs><g id="Layer_2" data-name="Layer 2"><g id="Layer_1-2" data-name="Layer 1"><path class="cls-1" d="M33,10.34v5.12a1.49,1.49,0,0,1,0,.21,1.67,1.67,0,0,1-.08.4,2.5,2.5,0,0,1-.15.38l-.11.16a2,2,0,0,1-.25.32,2.08,2.08,0,0,1-3.54-1.47V10.34a6.19,6.19,0,1,0-12.38,0v5.12a2.07,2.07,0,1,1-4.14,0V10.34a10.34,10.34,0,1,1,20.67,0Z"/><path class="cls-1" d="M41.32,13.56H35.39v1.9a4.49,4.49,0,1,1-9,0v-1.9H18.86v1.9a4.49,4.49,0,1,1-9,0v-1.9H4L0,60H45.28ZM9.89,29.91v-.7a1.21,1.21,0,0,1,2.42,0v.6A2.13,2.13,0,0,0,14.17,32a2.08,2.08,0,0,0,2.28-2.06v-.7a1.21,1.21,0,1,1,2.41,0v.57a4.58,4.58,0,0,1-4,4.6A4.5,4.5,0,0,1,9.89,29.91ZM33,44.14a10.34,10.34,0,1,1-20.67,0V43.05a1.48,1.48,0,0,1,0-.21,1.86,1.86,0,0,1,.08-.41,1.73,1.73,0,0,1,.16-.37l.1-.17a2.51,2.51,0,0,1,.26-.31,2.07,2.07,0,0,1,3.53,1.47v1.09a6.2,6.2,0,1,0,12.39,0V43.05a2.07,2.07,0,1,1,4.14,0Zm2.41-14.37a4.58,4.58,0,0,1-4.05,4.61,4.5,4.5,0,0,1-4.92-4.47v-.7a1.21,1.21,0,1,1,2.41,0v.6A2.15,2.15,0,0,0,31,32a2.12,2.12,0,0,0,1.37-.61,1.54,1.54,0,0,0,.25-.31s.07-.11.11-.17a2,2,0,0,0,.15-.37,1.77,1.77,0,0,0,.08-.4,1.49,1.49,0,0,0,0-.21v-.7a1.21,1.21,0,1,1,2.41,0Z"/></g></g></svg>